<?xml version="1.0" encoding="UTF-8" standalone="no"?>
<!DOCTYPE svg PUBLIC "-//W3C//DTD SVG 1.1//EN" "http://www.w3.org/Graphics/SVG/1.1/DTD/svg11.dtd">
<svg width="100%" height="100%" viewBox="0 0 196 196" version="1.1" xmlns="http://www.w3.org/2000/svg" xmlns:xlink="http://www.w3.org/1999/xlink" xml:space="preserve" style="fill-rule:evenodd;clip-rule:evenodd;stroke-linejoin:round;stroke-miterlimit:1.41421;">
    <g transform="matrix(0.583467,0,0,0.54787,-741.822,-1453.17)">
        <g transform="matrix(1.71389,0,0,1.82525,539.631,2282.95)">
            <path d="M608.506,260.315L608.506,338.964L524.24,396.408L440.623,338.959L440.623,260.322L524.123,203.601L608.506,260.315ZM444.623,262.44L444.623,336.855L524.249,391.561L604.506,336.85L604.506,262.446L524.135,208.429L444.623,262.44Z"/>
        </g>
        <g transform="matrix(-0.380641,0,0,0.380641,1864.22,1620.27)">
            <path d="M1000.01,2981.38C1000,2976.04 997.215,2971.13 992.766,2968.65C988.318,2966.17 982.945,2966.52 978.816,2969.57C950.531,2990.4 901.067,3026.84 875.924,3045.36C872.327,3048.01 870.158,3052.35 870.102,3057.01C870.046,3061.66 872.111,3066.06 875.643,3068.81C900.633,3088.24 950.179,3126.77 978.66,3148.92C982.768,3152.11 988.214,3152.58 992.749,3150.12C997.284,3147.67 1000.14,3142.71 1000.13,3137.29C1000.1,3096.48 1000.04,3021.67 1000.01,2981.38Z"/>
        </g>
        <g transform="matrix(1,0,0,1,439.045,-319.874)">
            <path d="M999.997,2982.13L1000.17,3321.94C1000.17,3321.94 960.962,3293.25 955.067,3288.94C954.605,3288.6 954.327,3288.04 954.324,3287.44C954.255,3274.36 953.497,3130.66 953.328,3098.43C953.323,3097.62 952.812,3096.91 952.075,3096.69C951.338,3096.47 950.554,3096.8 950.154,3097.49C944.746,3106.86 933.969,3125.53 930.976,3130.72C930.526,3131.5 929.602,3131.8 928.817,3131.43C924.726,3129.48 912.577,3123.7 907.362,3121.22C906.831,3120.97 906.216,3121.02 905.728,3121.36C905.241,3121.7 904.948,3122.28 904.949,3122.89C905,3139.14 905.255,3220.81 905.331,3245.24C905.336,3246.6 904.636,3247.84 903.513,3248.48C902.391,3249.11 901.03,3249.04 899.978,3248.28C890.199,3241.21 869.854,3226.5 862.782,3221.38C861.22,3220.25 860.294,3218.44 860.294,3216.52C860.294,3198.02 860.294,3101.55 860.294,3082.99C860.294,3081.06 861.231,3079.24 862.808,3078.11C871.221,3072.11 898.137,3052.89 903.049,3049.39C903.531,3049.04 904.144,3048.98 904.678,3049.23C908.118,3050.8 920.958,3056.65 925.195,3058.59C925.98,3058.94 926.891,3058.63 927.335,3057.86C931.461,3050.63 950.797,3016.76 952.942,3013C953.069,3012.78 953.24,3012.59 953.443,3012.44C956.646,3010.12 983.741,2990.52 983.741,2990.52L992.073,2984.54C994.451,2982.91 997.208,2982.11 999.997,2982.13Z"/>
        </g>
        <g transform="matrix(-0.380641,0,0,0.380641,1864.23,1752.6)">
            <path d="M1000.01,2993.9C1000,2988.66 997.316,2983.83 992.996,2981.3C988.676,2978.78 983.408,2978.96 979.25,2981.78C935.533,3011.39 837.902,3077.53 837.902,3077.53L1000.18,3199.08C1000.18,3199.08 1000.06,3054.45 1000.01,2993.9Z"/>
        </g>
        <g transform="matrix(0.380641,4.66151e-17,4.66151e-17,-0.380641,1197.83,4016.91)">
            <path d="M999.93,2933.84C999.93,2933.84 884.255,3017.21 841.417,3048.08C837.798,3050.69 835.588,3055 835.483,3059.65C835.379,3064.3 837.394,3068.72 840.891,3071.51C882.893,3105.01 997.557,3196.45 997.557,3196.45L999.93,2933.84Z"/>
        </g>
    </g>
</svg>
